<?xml version="1.0" encoding="UTF-8" standalone="no"?>
<svg xmlns:xlink="http://www.w3.org/1999/xlink" height="100.0px" width="100.0px" xmlns="http://www.w3.org/2000/svg">
  <g transform="matrix(1.0, 0.0, 0.0, 1.0, 0.0, 0.0)">
    <path d="M100.0 100.0 L0.0 100.0 0.0 0.0 100.0 0.0 100.0 100.0" fill="#00cc66" fill-rule="evenodd" stroke="none"/>
    <path d="M84.3 84.3 L84.3 15.7 15.7 15.7 15.7 84.3 84.3 84.3 M92.25 92.25 L7.75 92.25 7.75 7.75 92.25 7.75 92.25 92.25" fill="#666666" fill-rule="evenodd" stroke="none"/>
    <path d="M84.3 84.3 L15.7 84.3 15.7 15.7 84.3 15.7 84.3 84.3 M76.4 76.4 L76.4 23.55 23.55 23.55 23.55 76.4 76.4 76.4" fill="#999999" fill-rule="evenodd" stroke="none"/>
    <path d="M92.25 92.25 L92.25 7.75 7.75 7.75 7.75 92.25 92.25 92.25 M96.05 96.05 L3.95 96.05 3.95 3.95 96.05 3.95 96.05 96.05" fill="#333333" fill-rule="evenodd" stroke="none"/>
    <path d="M68.85 68.85 L68.85 31.1 31.1 31.1 31.1 68.85 68.85 68.85 M76.4 76.4 L23.55 76.4 23.55 23.55 76.4 23.55 76.4 76.4" fill="#cccccc" fill-rule="evenodd" stroke="none"/>
    <path d="M68.85 68.85 L31.1 68.85 31.1 31.1 68.85 31.1 68.85 68.85" fill="#ffffff" fill-rule="evenodd" stroke="none"/>
    <path d="M96.05 96.05 L96.05 3.95 3.95 3.95 3.95 96.05 96.05 96.05 M100.0 100.0 L0.0 100.0 0.0 0.0 100.0 0.0 100.0 100.0" fill="#000000" fill-rule="evenodd" stroke="none"/>
    <path d="M0.0 50.0 L50.0 50.0 0.0 0.0 M50.0 50.0 L50.0 0.0 M50.0 100.0 L50.0 50.0 0.0 100.0 M100.0 50.0 L50.0 50.0 100.0 100.0 M50.0 50.0 L100.0 0.0" fill="none" stroke="#000000" stroke-linecap="round" stroke-linejoin="round" stroke-width="0.05"/>
  </g>
</svg>
